<svg width="512" height="512" viewBox="0 0 512 512" fill="none" xmlns="http://www.w3.org/2000/svg">
  <!-- Background: Deep Dark Gradient with Rounded Corners -->
  <rect width="512" height="512" rx="120" fill="#0F172A"/>
  <rect width="512" height="512" rx="120" fill="url(#paint0_linear)" fill-opacity="0.4"/>
  
  <!-- Abstract 'K' / Candlestick Chart -->
  <!-- Left Vertical Bar (Strong Foundation) -->
  <rect x="110" y="110" width="70" height="292" rx="35" fill="url(#paint1_linear)"/>
  
  <!-- Upper Right Bar (Growth/Upward Trend) -->
  <rect x="210" y="110" width="70" height="150" rx="35" fill="#34D399"/>
  <circle cx="245" cy="145" r="15" fill="#ECFDF5" fill-opacity="0.5"/>
  
  <!-- Lower Right Bar (Connecting Stroke) -->
  <path d="M210 300C210 280.67 225.67 265 245 265H252C271.33 265 287 280.67 287 300V367C287 386.33 271.33 402 252 402H245C225.67 402 210 386.33 210 367V300Z" fill="#10B981"/>
  
  <!-- Subtle Glow Effect -->
  <circle cx="245" cy="145" r="100" fill="url(#paint2_radial)" fill-opacity="0.3"/>

  <!-- Definitions for Gradients -->
  <defs>
    <linearGradient id="paint0_linear" x1="0" y1="0" x2="512" y2="512" gradientUnits="userSpaceOnUse">
      <stop stop-color="#1E293B"/>
      <stop offset="1" stop-color="#0F172A" stop-opacity="0"/>
    </linearGradient>
    
    <linearGradient id="paint1_linear" x1="145" y1="110" x2="145" y2="402" gradientUnits="userSpaceOnUse">
      <stop stop-color="#3B82F6"/>
      <stop offset="1" stop-color="#2563EB"/>
    </linearGradient>

    <radialGradient id="paint2_radial" cx="0" cy="0" r="1" gradientUnits="userSpaceOnUse" gradientTransform="translate(245 145) rotate(90) scale(100)">
      <stop stop-color="#34D399"/>
      <stop offset="1" stop-color="#34D399" stop-opacity="0"/>
    </radialGradient>
  </defs>
</svg>
